<?xml version="1.0" standalone="no"?>
<!DOCTYPE svg PUBLIC "-//W3C//DTD SVG 20010904//EN"
 "http://www.w3.org/TR/2001/REC-SVG-20010904/DTD/svg10.dtd">
<svg version="1.0" xmlns="http://www.w3.org/2000/svg"
 width="500.000000pt" height="500.000000pt" viewBox="0 0 500.000000 500.000000"
 preserveAspectRatio="xMidYMid meet">
<metadata>
Created by potrace 1.14, written by Peter Selinger 2001-2017
</metadata>
<g transform="translate(0.000000,500.000000) scale(0.100000,-0.100000)"
fill="#000000" stroke="none">
<path d="M0 4279 l0 -720 29 20 c16 12 53 47 82 78 78 86 366 473 496 668 63
94 134 200 159 238 88 132 212 262 342 359 50 38 92 71 92 74 0 2 -270 4 -600
4 l-600 0 0 -721z"/>
<path d="M2191 4869 c48 -165 76 -202 111 -141 18 31 35 272 19 272 -5 0 -12
-53 -16 -117 -7 -116 -16 -153 -36 -153 -15 0 -44 73 -70 178 -13 50 -29 92
-35 92 -6 0 4 -52 27 -131z"/>
<path d="M3811 4996 c2 -2 40 -32 84 -67 44 -34 143 -124 220 -198 226 -220
427 -388 585 -492 99 -65 287 -179 295 -179 3 0 5 212 5 470 l0 470 -597 0
c-328 0 -594 -2 -592 -4z"/>
<path d="M3370 4632 c6 -13 14 -21 18 -18 3 4 -2 14 -12 24 -18 16 -18 16 -6
-6z"/>
<path d="M3395 4575 c38 -113 47 -183 42 -305 -6 -143 -28 -224 -82 -295 l-33
-42 63 -7 c80 -8 181 -43 320 -109 99 -48 120 -63 205 -148 93 -92 204 -243
295 -401 21 -37 41 -66 43 -63 2 2 -12 46 -31 97 -19 51 -49 140 -67 198 -17
58 -36 116 -41 130 -25 70 -71 326 -76 427 -5 95 -3 116 11 138 21 33 14 43
-25 39 -17 -2 -50 5 -74 15 -72 32 -225 126 -339 208 -134 96 -166 117 -172
110 -3 -3 8 -14 24 -25 16 -12 51 -47 78 -78 47 -56 48 -57 19 -49 -17 5 -45
9 -64 9 -32 1 -34 4 -55 66 -12 36 -28 74 -35 85 -12 20 -12 20 -6 0z m287
-192 c53 -41 215 -142 253 -157 l20 -8 -20 -8 c-11 -4 -36 -10 -56 -14 -35 -6
-38 -4 -145 103 -60 59 -118 119 -129 132 l-20 23 22 -14 c12 -8 46 -34 75
-57z"/>
<path d="M2549 3905 c-10 -199 76 -543 201 -800 46 -95 177 -308 214 -348 14
-15 26 -29 26 -31 0 -1 -44 4 -97 11 -59 8 -144 30 -213 54 -153 54 -154 54
-146 41 4 -6 35 -21 69 -34 61 -23 62 -23 26 -26 -48 -4 -178 31 -267 73 -167
79 -338 226 -504 434 -113 142 -202 308 -258 482 -36 111 -38 115 -45 108 -5
-6 33 -156 46 -180 5 -10 5 -20 0 -23 -8 -5 -68 -125 -104 -206 -50 -112 -108
-253 -128 -309 -25 -70 -38 -67 -20 6 16 60 25 220 11 178 -28 -84 -66 -394
-79 -656 -7 -134 2 -657 13 -776 38 -405 127 -645 310 -841 53 -56 89 -84 188
-145 41 -26 173 -67 210 -66 25 0 11 7 -57 28 -82 25 -204 80 -180 80 6 1 35
-6 65 -14 71 -19 156 -19 210 0 51 18 126 77 135 106 15 45 65 -39 65 -109 0
-58 -27 -77 -139 -96 -181 -31 -346 -15 -540 50 -179 61 -346 159 -468 275
-73 69 -85 69 -18 0 33 -34 84 -78 113 -98 28 -20 50 -38 48 -41 -8 -7 -120
20 -220 54 -339 114 -597 414 -700 815 -29 112 -53 257 -66 394 -8 93 -8 88
-5 -65 3 -145 7 -179 34 -285 17 -66 31 -121 31 -122 0 -2 -25 13 -56 33 -60
38 -132 73 -151 74 -8 0 -9 -9 -2 -32 5 -18 9 -44 9 -58 1 -19 19 -41 75 -87
122 -103 273 -288 252 -309 -5 -5 -196 79 -263 117 -29 16 -55 29 -57 29 -2 0
-7 -28 -11 -62 -3 -35 -16 -101 -27 -147 l-21 -84 64 -64 c187 -191 500 -352
798 -413 262 -52 337 -63 453 -62 171 1 212 20 187 86 -14 37 -14 36 18 21 15
-7 60 -21 100 -30 43 -11 72 -23 72 -31 0 -24 -30 -43 -87 -54 -121 -23 -151
-32 -236 -76 -49 -24 -95 -44 -103 -44 -26 0 -15 -16 34 -48 26 -17 81 -62
122 -99 42 -37 93 -83 115 -102 22 -18 33 -30 25 -26 -8 5 -62 47 -120 95
-196 160 -248 189 -422 230 -111 26 -173 28 -216 6 -31 -16 -32 -16 -32 4 0
11 7 20 15 20 25 0 17 17 -20 40 -19 11 -44 33 -57 48 -27 31 -71 62 -90 62
-7 0 -1 -10 14 -23 43 -35 137 -169 144 -204 14 -76 153 -217 256 -262 127
-56 328 -90 588 -97 277 -9 371 7 443 75 42 38 57 73 57 132 0 40 -6 60 -30
96 -17 25 -34 58 -37 73 -4 24 -1 31 25 44 46 24 69 20 209 -33 193 -74 301
-94 518 -95 294 -2 313 5 910 341 70 40 112 55 190 72 55 11 126 34 158 49 31
16 57 24 57 19 0 -19 -99 -143 -162 -203 -121 -115 -240 -189 -368 -226 -71
-20 -152 -17 -202 8 -49 25 -54 14 -10 -26 49 -45 148 -98 235 -126 31 -10 57
-23 57 -29 0 -6 22 -24 50 -40 40 -23 47 -31 38 -43 -15 -17 -215 -118 -283
-142 -123 -44 -193 -73 -252 -107 -38 -21 -72 -33 -84 -30 -11 3 -39 -6 -64
-19 -24 -14 -68 -34 -97 -44 l-53 -19 151 -1 151 0 129 46 c133 47 400 172
537 250 43 25 80 44 82 42 2 -2 -21 -51 -50 -110 -29 -59 -55 -124 -59 -145
-3 -21 -9 -48 -12 -61 -4 -12 -2 -22 3 -22 4 0 19 38 32 85 13 47 41 119 62
161 22 42 39 81 39 88 0 7 32 36 72 66 53 39 91 59 147 75 257 74 411 182 575
402 36 49 85 104 110 123 29 21 46 42 46 54 0 19 -2 19 -25 -7 -14 -15 -28
-27 -31 -27 -2 0 9 27 26 60 18 36 30 74 30 97 l-1 38 -23 -55 c-94 -226 -294
-470 -455 -554 -65 -34 -85 -39 -170 -46 -182 -14 -374 28 -454 98 -30 27 -26
9 13 -55 38 -61 38 -62 17 -70 -12 -4 -84 -7 -159 -6 -112 1 -148 5 -202 23
-83 27 -92 40 -24 33 69 -7 169 17 257 61 182 92 388 312 433 464 14 46 34 83
68 124 110 132 222 385 219 494 l-1 29 -8 -25 c-4 -14 -22 -70 -39 -125 -65
-205 -175 -381 -277 -441 -26 -15 -76 -38 -113 -52 -62 -23 -74 -23 -211 -17
-157 7 -239 17 -340 42 -77 18 -190 62 -190 73 0 4 22 10 49 13 72 9 142 48
225 127 74 71 142 163 189 255 107 214 106 571 -3 1015 -52 211 -118 423 -178
565 -58 139 -86 168 -37 39 14 -37 24 -69 22 -71 -4 -3 -163 62 -261 106 -248
114 -572 373 -722 578 -75 103 -74 102 -75 68z m182 -228 c96 -102 227 -212
350 -295 92 -63 355 -198 464 -239 l80 -30 64 -192 c34 -106 61 -195 58 -198
-4 -3 -23 -2 -44 2 -28 5 -50 20 -85 58 l-48 52 45 38 c47 40 62 68 23 43 -13
-8 -43 -20 -68 -26 -44 -11 -48 -10 -104 24 -33 20 -68 38 -78 42 -17 5 -16 8
8 40 33 42 24 57 -14 22 -33 -31 -86 -50 -117 -42 -32 8 -154 -12 -218 -36
-30 -11 -72 -36 -94 -55 l-41 -35 -50 88 c-105 183 -154 297 -216 503 -35 117
-70 285 -82 394 l-7 60 42 -62 c23 -34 82 -104 132 -156z m-1054 -161 c131
-267 409 -562 638 -678 139 -71 239 -93 530 -119 l131 -11 -4 -98 c-6 -130 20
-222 77 -279 34 -34 46 -39 115 -50 101 -15 99 -15 71 14 -37 36 -29 114 17
162 33 35 100 32 139 -6 16 -16 29 -36 29 -44 0 -29 -58 -95 -94 -107 -20 -6
-36 -16 -36 -21 0 -26 78 18 113 64 99 130 112 297 34 414 -40 59 -83 88 -152
104 -46 10 -65 9 -121 -4 -67 -17 -153 -70 -154 -94 0 -17 -15 -16 -30 1 -9
12 -4 20 31 46 60 43 139 65 234 65 69 0 89 -4 146 -31 86 -41 142 -92 175
-161 27 -54 27 -56 15 -135 -7 -44 -10 -82 -7 -85 2 -3 29 45 58 105 51 107
66 124 112 126 5 1 17 -28 27 -64 21 -75 69 -326 69 -363 0 -15 -17 -44 -46
-76 -46 -51 -131 -117 -140 -109 -2 3 3 37 12 76 15 67 18 73 59 97 37 21 85
77 85 99 0 4 -24 -19 -54 -51 -30 -32 -57 -55 -61 -51 -7 6 12 100 50 250 8
32 15 70 14 85 -1 38 -53 -147 -78 -277 -33 -168 -126 -487 -157 -534 -34 -53
-65 -87 -74 -81 -4 3 -16 -5 -26 -18 -19 -22 -19 -22 2 -7 11 8 5 0 -14 -17
-19 -18 -38 -30 -43 -28 -4 3 -11 -1 -16 -9 -19 -32 -189 -124 -406 -220 -169
-75 -268 -106 -333 -106 -91 0 -390 66 -551 121 -222 76 -336 134 -414 211
-76 73 -112 140 -194 358 -30 80 -78 191 -106 248 -41 83 -50 110 -47 145 3
38 6 42 31 45 19 2 27 -1 27 -13 0 -23 40 -83 100 -148 61 -67 84 -75 40 -14
-78 109 -48 282 69 389 31 28 81 63 111 77 48 23 68 26 155 26 81 0 112 -4
163 -24 62 -23 94 -22 59 3 -25 19 -21 29 9 22 19 -5 25 -3 22 6 -7 23 -115
70 -180 78 -65 7 -198 -4 -228 -20 -18 -10 -113 12 -137 32 -7 5 -13 5 -17 0
-3 -6 11 -22 31 -37 l36 -28 -29 -21 c-16 -11 -48 -38 -72 -60 -41 -38 -43
-39 -102 -33 -33 3 -60 3 -60 1 0 -2 19 -13 43 -25 23 -12 43 -23 45 -24 2 -1
-8 -20 -23 -40 -14 -21 -25 -44 -25 -51 0 -16 -49 -74 -62 -74 -13 0 -3 353
13 464 13 96 40 152 82 172 18 9 34 22 34 29 0 9 -12 4 -34 -12 -18 -14 -33
-21 -33 -15 0 11 21 65 51 129 10 24 19 45 19 48 0 9 101 247 138 325 33 70
36 73 45 50 6 -14 30 -65 54 -114z m1583 -888 c11 -18 20 -44 20 -58 0 -37
-35 -88 -66 -96 -23 -6 -32 -1 -57 26 -25 28 -28 39 -24 72 8 60 31 88 72 88
29 0 39 -6 55 -32z m196 -122 c15 -12 17 -17 7 -27 -10 -10 -16 -9 -28 7 -26
35 -15 46 21 20z m-351 -76 c3 -6 -1 -13 -10 -16 -19 -8 -30 0 -20 15 8 14 22
14 30 1z m11 -107 c-8 -8 -56 17 -56 29 0 5 14 1 31 -7 17 -9 28 -19 25 -22z
m74 -13 c0 -12 -17 -12 -45 0 -17 7 -15 9 13 9 17 1 32 -3 32 -9z m-1860 -67
c0 -24 -25 -9 -28 17 -3 21 -2 22 12 11 9 -7 16 -20 16 -28z m7 -48 c23 -16
80 -181 68 -193 -3 -4 -21 1 -38 11 l-32 17 28 -25 c15 -14 35 -25 43 -25 13
0 54 -77 54 -101 0 -10 -103 39 -131 63 -13 10 -18 40 -23 141 -3 70 -3 127 2
127 4 0 17 -7 29 -15z m2517 -210 c-12 -258 -47 -363 -170 -518 -41 -53 -47
-57 -62 -44 -43 36 -151 87 -187 87 -40 0 -115 19 -115 29 0 3 30 26 65 50
123 82 199 195 245 363 24 87 24 87 88 134 34 25 77 64 95 86 l32 40 7 -58 c4
-33 5 -108 2 -169z m-2352 -226 c22 -41 53 -91 69 -111 16 -20 29 -38 29 -40
0 -2 -20 -2 -44 0 -30 3 -63 -4 -107 -22 -35 -14 -67 -22 -71 -18 -9 9 -42
186 -53 280 l-7 62 72 -39 c67 -36 75 -44 112 -112z m2638 -1316 c-1 -34 -615
-342 -636 -320 -17 17 505 302 580 317 57 11 56 11 56 3z m-327 -10 c-7 -2
-21 -2 -30 0 -10 3 -4 5 12 5 17 0 24 -2 18 -5z"/>
<path d="M2895 3300 c-3 -5 -2 -10 4 -10 5 0 13 5 16 10 3 6 2 10 -4 10 -5 0
-13 -4 -16 -10z"/>
<path d="M3015 2965 c-39 -17 -21 -18 25 0 19 7 28 14 20 14 -8 0 -28 -6 -45
-14z"/>
<path d="M1612 3178 c-29 -12 -51 -23 -49 -25 2 -2 17 2 33 8 16 6 49 17 74
24 30 9 37 13 20 13 -14 1 -49 -9 -78 -20z"/>
<path d="M1520 3140 c-8 -5 -10 -10 -5 -10 6 0 17 5 25 10 8 5 11 10 5 10 -5
0 -17 -5 -25 -10z"/>
<path d="M1721 2706 c-48 -17 -108 -71 -134 -119 -19 -35 -22 -58 -22 -142 0
-94 2 -104 33 -163 43 -83 97 -135 160 -156 54 -18 73 -16 162 16 132 47 152
77 153 222 1 140 -26 220 -97 292 -39 38 -61 52 -91 57 -59 10 -126 7 -164 -7z
m149 -183 c55 -32 69 -120 25 -167 -13 -14 -29 -26 -36 -26 -6 0 -29 17 -50
39 -31 31 -39 46 -39 75 0 55 23 87 68 95 2 1 17 -6 32 -16z m140 -168 c36
-19 46 -54 31 -104 -13 -46 -32 -64 -91 -84 -96 -34 -211 -30 -135 5 19 8 31
8 50 0 38 -17 39 -15 13 16 -34 41 -27 101 17 147 36 39 68 44 115 20z m-260
-104 c0 -14 -18 -23 -30 -16 -6 4 -8 11 -5 16 8 12 35 12 35 0z m37 -68 c-9
-9 -19 -14 -23 -11 -10 10 6 28 24 28 15 0 15 -1 -1 -17z"/>
<path d="M3440 2290 c0 -5 5 -10 10 -10 6 0 10 5 10 10 0 6 -4 10 -10 10 -5 0
-10 -4 -10 -10z"/>
<path d="M3385 2270 c-3 -5 1 -10 10 -10 9 0 13 5 10 10 -3 6 -8 10 -10 10 -2
0 -7 -4 -10 -10z"/>
<path d="M1707 2094 c-11 -11 3 -24 18 -18 8 4 12 10 9 15 -6 11 -18 12 -27 3z"/>
<path d="M2708 1983 c7 -3 16 -2 19 1 4 3 -2 6 -13 5 -11 0 -14 -3 -6 -6z"/>
<path d="M2763 1961 c-56 -38 -163 -61 -283 -61 -95 0 -170 15 -153 30 7 7
159 27 323 43 23 3 16 4 -20 5 -30 1 -109 -5 -175 -13 -65 -8 -125 -15 -132
-15 -7 0 -22 -9 -33 -20 -17 -17 -20 -32 -18 -102 l1 -83 6 72 c3 39 9 74 12
78 4 3 44 1 90 -5 121 -16 238 0 411 57 31 9 57 -67 58 -167 1 -57 4 -78 10
-65 27 64 -10 276 -48 275 -4 0 -26 -13 -49 -29z"/>
<path d="M2281 1730 c0 -8 4 -22 9 -30 12 -18 12 -2 0 25 -6 13 -9 15 -9 5z"/>
<path d="M4950 3503 c-43 -8 -44 -20 -1 -47 22 -14 43 -26 46 -26 3 0 5 18 5
40 0 41 -1 42 -50 33z"/>
<path d="M415 3370 c-9 -16 -13 -30 -11 -30 3 0 12 14 21 30 9 17 13 30 11 30
-3 0 -12 -13 -21 -30z"/>
<path d="M1371 3384 c0 -11 3 -14 6 -6 3 7 2 16 -1 19 -3 4 -6 -2 -5 -13z"/>
<path d="M177 2951 c-17 -29 -59 -41 -143 -41 l-34 0 0 -152 0 -153 19 31 c21
34 145 261 169 307 19 38 10 44 -11 8z"/>
<path d="M3 2125 c2 -27 16 -101 31 -164 43 -183 35 -449 -18 -600 -17 -47
-21 -95 -7 -87 9 6 43 105 63 186 8 36 13 118 13 235 0 170 -2 187 -32 307
-42 160 -54 192 -50 123z"/>
<path d="M4635 1470 c15 -24 91 -52 155 -57 53 -4 83 -1 139 16 39 12 71 26
71 32 0 7 -7 8 -17 4 -74 -32 -107 -39 -173 -39 -64 -1 -82 3 -124 27 -53 30
-60 32 -51 17z"/>
<path d="M970 1285 c13 -14 26 -25 28 -25 3 0 -5 11 -18 25 -13 14 -26 25 -28
25 -3 0 5 -11 18 -25z"/>
<path d="M430 966 c0 -2 22 -18 48 -35 86 -55 193 -175 392 -436 86 -114 233
-288 285 -339 17 -16 61 -58 98 -93 l69 -63 131 1 c102 1 122 3 89 10 -104 20
-234 109 -387 264 -117 119 -179 155 -110 65 70 -92 76 -103 25 -50 -47 51
-209 250 -273 337 -16 21 -78 93 -138 161 -88 97 -123 129 -170 152 -32 17
-59 28 -59 26z m830 -863 c33 -35 37 -42 15 -26 -37 26 -82 73 -69 73 5 0 29
-21 54 -47z"/>
<path d="M91 801 c67 -4 103 -11 122 -24 41 -26 92 -100 147 -212 67 -136 99
-264 107 -432 3 -73 10 -133 15 -133 10 0 11 11 9 144 -5 236 -123 527 -259
635 -39 30 -42 31 -138 29 l-99 -2 96 -5z"/>
<path d="M2331 304 c0 -11 3 -14 6 -6 3 7 2 16 -1 19 -3 4 -6 -2 -5 -13z"/>
<path d="M2215 218 l-60 -63 63 60 c58 55 67 65 59 65 -1 0 -29 -28 -62 -62z"/>
<path d="M4882 200 c0 -14 2 -19 5 -12 2 6 2 18 0 25 -3 6 -5 1 -5 -13z"/>
<path d="M4890 156 c0 -8 4 -17 9 -20 5 -4 7 3 4 14 -6 23 -13 26 -13 6z"/>
<path d="M4168 133 c7 -3 16 -2 19 1 4 3 -2 6 -13 5 -11 0 -14 -3 -6 -6z"/>
<path d="M4215 120 c3 -5 11 -10 16 -10 6 0 7 5 4 10 -3 6 -11 10 -16 10 -6 0
-7 -4 -4 -10z"/>
<path d="M4924 99 c8 -11 25 -28 38 -36 15 -11 11 -4 -11 20 -39 41 -49 47
-27 16z"/>
<path d="M4448 53 c7 -3 16 -2 19 1 4 3 -2 6 -13 5 -11 0 -14 -3 -6 -6z"/>
<path d="M1215 20 c-17 -18 -17 -20 -1 -20 9 0 19 7 23 15 9 25 -2 27 -22 5z"/>
<path d="M4530 34 c0 -9 76 -35 93 -32 10 2 -7 10 -37 19 -31 9 -56 15 -56 13z"/>
</g>
</svg>
